<?xml version="1.0" encoding="iso-8859-1"?>
<!-- Generator: Adobe Illustrator 22.1.0, SVG Export Plug-In . SVG Version: 6.00 Build 0)  -->
<svg xmlns="http://www.w3.org/2000/svg" xmlns:xlink="http://www.w3.org/1999/xlink" version="1.1" id="Layer_1_1_" x="0px" y="0px" viewBox="0 0 64 64" style="enable-background:new 0 0 64 64;" xml:space="preserve" width="512" height="512">
<linearGradient id="SVGID_1_" gradientUnits="userSpaceOnUse" x1="32" y1="63" x2="32" y2="1">
	<stop offset="0" style="stop-color:#9F2FFF"/>
	<stop offset="1" style="stop-color:#0BB1D3"/>
</linearGradient>
<path style="fill:url(#SVGID_1_);" d="M32,1C14.906,1,1,14.907,1,32c0,17.094,13.906,31,31,31s31-13.906,31-31  C63,14.907,49.094,1,32,1z M32,61C16.01,61,3,47.99,3,32C3,16.009,16.01,3,32,3s29,13.009,29,29C61,47.99,47.99,61,32,61z   M35.124,7.193l-0.248,1.984C46.015,10.567,54.47,19.862,54.953,31h-3.997c-0.086-1.652-0.384-3.271-0.889-4.836  C50.639,25.617,51,24.852,51,24c0-1.654-1.346-3-3-3c-0.165,0-0.325,0.023-0.483,0.049c-0.435-0.616-0.902-1.201-1.398-1.754  l1.588-1.588l-1.414-1.414l-1.584,1.584C41.506,14.988,37.396,13.26,33,13.031V5h-2v2.025C18.01,7.54,7.54,18.01,7.025,31H5v2h2.047  c0.485,12.145,9.692,22.293,21.829,23.807l0.248-1.984C17.985,53.433,9.53,44.138,9.047,33h3.996  c0.195,3.66,1.45,7.203,3.602,10.163C16.247,43.673,16,44.305,16,45c0,1.654,1.346,3,3,3c0.695,0,1.328-0.247,1.837-0.646  c2.961,2.152,6.503,3.408,10.163,3.603V59h2v-2.025C45.99,56.46,56.46,45.99,56.975,33H59v-2h-2.047  C56.468,18.855,47.262,8.707,35.124,7.193z M15.043,31c0.195-3.277,1.341-6.443,3.288-9.081C18.547,21.968,18.769,22,19,22  c1.654,0,3-1.346,3-3c0-0.231-0.032-0.454-0.082-0.671c2.666-1.974,5.772-3.099,9.082-3.288v4.009  C24.63,19.539,19.539,24.63,19.051,31H15.043z M18,19c0-0.551,0.448-1,1-1s1,0.449,1,1s-0.448,1-1,1S18,19.551,18,19z M34.414,31  l1.753-1.753c0.348,0.524,0.602,1.116,0.732,1.753H34.414z M36.899,33C36.5,34.956,34.956,36.5,33,36.899V33H36.899z M33,29.586  v-2.485c0.637,0.13,1.229,0.384,1.753,0.732L33,29.586z M31,31h-3.899c0.399-1.956,1.943-3.5,3.899-3.899V31z M31,33v3.899  C29.044,36.5,27.5,34.956,27.101,33H31z M33,38.92c3.059-0.441,5.479-2.861,5.92-5.92h4.029c-0.478,5.268-4.681,9.472-9.949,9.949  V38.92z M38.92,31c-0.17-1.183-0.636-2.269-1.322-3.184l2.85-2.85c1.391,1.667,2.294,3.751,2.501,6.034H38.92z M36.184,26.402  C35.269,25.716,34.183,25.25,33,25.08v-4.029c2.283,0.207,4.366,1.111,6.034,2.501L36.184,26.402z M31,21.051v4.029  c-3.059,0.441-5.479,2.861-5.92,5.92h-4.029C21.528,25.732,25.732,21.528,31,21.051z M25.08,33c0.441,3.059,2.861,5.479,5.92,5.92  v4.029c-5.268-0.478-9.472-4.681-9.949-9.949H25.08z M33,44.949C39.37,44.461,44.461,39.37,44.949,33h4  C48.447,41.575,41.575,48.447,33,48.949V44.949z M49,24c0,0.551-0.448,1-1,1s-1-0.449-1-1s0.448-1,1-1S49,23.449,49,24z   M45.761,22.024C45.293,22.553,45,23.24,45,24c0,1.654,1.346,3,3,3c0.078,0,0.152-0.017,0.229-0.023  c0.404,1.305,0.648,2.65,0.727,4.023h-4.007c-0.217-2.833-1.341-5.411-3.088-7.447l2.841-2.841  C45.074,21.13,45.428,21.566,45.761,22.024z M43.291,19.295l-2.844,2.844c-2.036-1.747-4.615-2.871-7.447-3.088v-4.019  C36.858,15.256,40.463,16.775,43.291,19.295z M31,9.025v4.018c-3.66,0.195-7.203,1.451-10.163,3.602C20.327,16.247,19.695,16,19,16  c-1.654,0-3,1.346-3,3c0,0.695,0.247,1.327,0.645,1.837c-2.152,2.961-3.407,6.503-3.602,10.163H9.025  C9.537,19.112,19.112,9.537,31,9.025z M19,46c-0.552,0-1-0.448-1-1s0.448-1,1-1s1,0.448,1,1S19.552,46,19,46z M21.918,45.672  C21.968,45.455,22,45.232,22,45c0-1.654-1.346-3-3-3c-0.231,0-0.454,0.032-0.671,0.082c-1.946-2.639-3.091-5.805-3.286-9.082h4.008  C19.539,39.37,24.63,44.461,31,44.949v4.009C27.691,48.77,24.584,47.644,21.918,45.672z M33,54.975v-4.025  C42.677,50.442,50.442,42.677,50.949,33h4.025C54.463,44.888,44.888,54.463,33,54.975z"/>
</svg>
